<?xml version="1.0" encoding="utf-8"?>
<!-- Generator: Adobe Illustrator 16.0.0, SVG Export Plug-In . SVG Version: 6.00 Build 0)  -->
<!DOCTYPE svg PUBLIC "-//W3C//DTD SVG 1.1//EN" "http://www.w3.org/Graphics/SVG/1.1/DTD/svg11.dtd">
<svg version="1.1" id="Layer_1" xmlns="http://www.w3.org/2000/svg" xmlns:xlink="http://www.w3.org/1999/xlink" x="0px" y="0px"
	 width="864px" height="864px" viewBox="0 0 864 864" enable-background="new 0 0 864 864" xml:space="preserve">
<polyline fill="#213F7E" points="31,438.328 437.305,844.633 843.711,438.328 437.305,32.025 31,438.328 "/>
<g>
	<path fill="#FFFFFF" d="M343.53,325.753c-1.026,3.091-3.084,1.037-5.144,2.066l-1.029-6.179
		C339.417,322.672,343.53,322.672,343.53,325.753"/>
	<path fill="#FFFFFF" d="M353.824,353.549c-13.378,1.03-13.378-9.262-17.495-17.497C345.595,340.171,338.387,355.61,353.824,353.549
		"/>
	<polyline fill="#FFFFFF" points="386.77,433.844 386.77,433.844 384.707,426.634 386.77,428.694 386.77,433.844 386.77,428.694 
		384.707,426.634 386.77,433.844 	"/>
	<g>
		<path fill="#FFFFFF" d="M319.732,238.955c1.395,4.843,3.56,10.178,6.784,16.085v4.811c2.769,5.129,6.327,9.714,10.79,13.451
			c-8.194-19.607-19.498-44.294-10.263-67.942c10.263,7.152,13.375,16.388,18.564,26.759c8.195,2.074,13.383,5.08,14.418,13.382
			l-4.148,4.043c10.273,0,13.377,15.455,25.726,6.225l5.184-8.193c-13.911-18.914-35.446-39.66-55.48-48.552
			c-3.852-0.692-7.095-0.176-8.215,2.911c-0.955,2.636-2.313,5.733-3.44,9.444C318.379,220.345,318.294,229.866,319.732,238.955z"/>
		<path fill="#FFFFFF" d="M547.355,198.092l-6.414,4.421c-11.814,10.146-5.701,4.608-2.447,1.688l-50.882,35.076
			c6.213,4.146,8.297,14.416,17.527,14.416l1.045-11.305c6.214,3.213,7.982-0.105,9.637-3.42c1.664-3.111,3.332-6.227,8.926-3.84
			c-2.083-1.975-6.225-0.936-9.332-3.009c0-2.596,2.49-2.282,5.08-1.969c1.564,0.102,3.113,0.309,4.252-0.11
			c7.159-10.261,18.472-13.376,23.647-25.722c3.102,22.616-8.293,43.257-18.571,62.759l3.115,2.07
			c11.83-14.802,18.975-33.319,21.286-52.992c0.211-4.208,0.144-8.222-0.34-11.729c0,0,5.893-16.254-7.695-6.217
			C546.578,198.171,546.964,198.121,547.355,198.092z"/>
		<path fill="#FFFFFF" d="M299.476,306.308c-1.581,3.105-3.292,6.69-4.919,10.649C298.611,314.783,298.836,310.694,299.476,306.308z
			"/>
		<path fill="#FFFFFF" d="M385.923,454.13c-0.057-0.254-0.12-0.507-0.174-0.763c-0.065,0.028-0.129,0.048-0.194,0.074
			C385.679,453.671,385.801,453.9,385.923,454.13z"/>
		<path fill="#FFFFFF" d="M398.736,479.331c1.012,1.312,2.106,2.621,3.297,3.907c0,0,0.304,0.172,0.874,0.459
			C401.44,482.311,400.051,480.851,398.736,479.331z"/>
	</g>
	<path fill="#FFFFFF" d="M459.851,233.112c-3.088,12.352,8.236,21.62,18.523,26.765c18.542,7.208,37.064,16.47,56.624,22.649
		c0,2.056,1.023,9.262-4.12,9.262c-1.035-2.058-3.086-3.09-6.177-3.09v14.414h-4.118c1.022-9.262-6.171-3.091-10.304-6.181
		c1.039-2.054,2.07-4.114,1.039-6.172l7.202,3.092c3.085-4.121,2.062-10.298-2.062-13.385l-11.309,2.061
		c-5.155-11.326-19.562-11.326-30.886-15.441c-3.085-4.12-7.205-6.177-7.205-12.353c-9.267-3.088-17.5-6.177-20.59-18.529
		l-11.322,3.088l1.022-7.202C444.403,234.141,450.594,233.112,459.851,233.112"/>
	<path fill="#FFFFFF" d="M564.849,323.699l-1.026,4.121c2.06,1.025,8.229,0,6.168,6.172l-12.348,2.061l3.086-6.173
		c-19.563,3.083-8.241-39.119-27.794-16.474l-2.057-1.029c10.287-3.087,4.118-13.381,8.236-18.524
		C551.466,301.054,562.776,308.256,564.849,323.699"/>
	<path fill="#FFFFFF" d="M566.855,347.367c2.082-2.081,3.115-4.149,3.115-6.118c-3.521-0.732-6.945,0.413-10.264,1.553
		c-5.389,1.869-10.795,3.738-16.488-2.592c-6.644-5.082-12.452-3.424-18.257-1.762c-6.025,1.656-12.045,3.422-18.775-2.387
		c-8.193,6.222-6.238-6.223-14.43-6.223c-4.138-4.049-9.541-3.631-14.621-3.324c-6.222,0.52-11.931,1.04-14.213-6.947h-3.107
		c3.107-12.344-11.312-15.455-6.124-27.796c-14.416-7.16,1.038-16.393-7.258-25.732c0,0,8.295,5.189,9.336,0
		c-2.08-11.304-16.496-6.117-18.573-18.458l-5.182,7.152c-3.011-2.071,4.148-23.648-10.268-23.648l-9.774,0.615l-5.722,2.562
		c7.234,17.833-19.776,24.01-27.761,34.891c8.296,2.077,16.494-7.264,25.826-7.264c1.976-6.115,11.311-16.384,17.431-23.652
		c-7.159,12.346,16.494,19.607,2.074,30.914c-14.417,2.077-2.074,21.576-11.305,27.801c6.118,8.195-13.381,18.566,5.182,20.541
		c-11.406-13.381,15.352-15.352,5.084-29.77l9.233-20.642c4.148,8.294,9.335,19.599,10.372,27.794
		c1.037,9.234,13.383,11.311,4.047,20.641c8.295,0.936,3.109,18.464,14.418,12.347c4.14,9.229-12.35,17.421-6.123,28.734
		c-6.119-2.701-12.76-1.042-19.501,0.62c-5.808,1.453-11.825,2.903-17.53,1.453c1.969-11.307-4.148-17.424-6.225-26.762
		c-9.228-4.044-21.575-8.199-31.948-2.076c-7.158,6.225-16.386,12.447-22.611,19.605c15.453,0,34.958-5.187,49.377,4.148
		c3.112,11.306,11.406,20.535,3.112,31.847c3.11-23.652-28.836-12.346-32.884-30.812c-4.153-8.293-9.336,0-14.417,1.045
		c-2.079,1.969-5.189,4.039-4.154,7.152c11.305,21.574,46.367,11.304,49.377,35.994l3.112-2.072
		c4.149,3.113,2.077,8.297,3.111,12.445l-8.3-1.035c0,1.967,1.039,5.08-0.934,7.158l1.976,2.077l3.112-6.225
		c5.182,6.225,1.035,13.378,2.069,21.677c-15.453,0-10.265-23.652-19.601-34.025c-7.159-7.154-19.507-4.047-24.688-12.341
		c-1.034,2.072-3.111,1.033-5.08,1.033c-2.079,0-2.079-3.111,0-3.111l4.046-4.045c-2.077-3.111-6.123-5.181-9.235-2.072v5.082
		c-19.607-0.934-1.038-37.031-26.762-22.615l-11.311-6.123c14.424-2.068-2.071-14.416,10.271-17.529
		c-1.035-3.109-4.149-6.223-6.117-8.195c-2.075,0.936-3.11,1.972-5.187,1.972c0-1.972,6.123-5.083,1.035-8.193
		c4.154-3.111,11.312-22.613,23.653-10.267l3.112-3.115c-0.725-3.422-3.736-3.215-6.534-2.906c-1.452,0.107-2.802,0.211-3.736-0.201
		c0-7.159,9.235-3.12,6.123-12.348c3.113,1.035,4.147,4.146,8.296,4.146c-6.224-11.307,11.305-9.228,8.195-17.527
		c11.304,6.221,10.271-5.084,18.571-8.195l-1.041-3.111c-21.678,4.153-41.177,19.608-56.638,31.947
		c-9.228-3.109,4.154-21.678-10.265-9.33c0.507-2.647,1.024-5.084,1.651-7.374c-0.679,1.494-1.248,3.147-1.655,4.989v2.353
		c-0.024-0.354-0.345-3.871-3.11,3.138c0,0.001-0.001,0.003-0.002,0.004c7.158,7.264-2.075,20.641-6.223,29.876
		c-2.079-1.042-4.048,1.035-5.083,3.111c2.073,12.342-10.377,34.955,1.035,41.179c1.969-2.072,6.125-5.184,10.271-6.225
		c-2.075,7.158,9.229,16.492,1.037,23.652c11.304,5.187,12.339,22.714,26.763,17.53v6.116c3.005,3.22,6.743,1.869,10.059,0.52
		c4.254-1.656,7.78-3.422,8.402,4.671c7.264,2.077,18.57,3.109,27.799,1.033c-2.071,13.383,16.495,2.076,9.336,17.529l6.123,2.079
		c-3.11,7.155-8.198,15.352-4.152,23.644c0.312,4.26,1.059,7.825,2.163,10.822c1.389,2.602,3.132,5.45,5.286,8.314
		c8.411,7.992,22.647,6.682,36.846,5.347c9.539-0.833,18.982-1.657,26.761,0.203c13.38-5.177,15.467-19.595,17.536-31.94
		c1.036-6.125-4.154-10.268-7.271-15.355c-14.313,12.352-5.076,43.154-31.841,43.154c-14.418-1.035-26.76-9.227-28.837-24.693
		c-1.034-5.076,5.19-2.074,7.161-4.143c5.187-1.967,7.258,3.105,9.335,6.227c8.195,0,16.387-1.037,22.614-4.156
		c-5.082-6.121-14.419-11.299-24.688-7.156c5.189-20.638-16.488-51.448,9.236-66.903c-2.079-5.187-1.042-13.378-1.042-17.527h2.077
		c-2.077,7.259,4.148,12.34,7.261,13.383c5.08,0,2.074-6.124,3.01-9.234c10.371-1.036,7.26,11.304,13.382,15.458
		c-4.042-16.494,4.144-36.104,23.746-38.174c9.143,3.006,19.09,2.904,28.738,2.904c7.461,0,14.832-0.107,21.675,1.245
		c-3.104,4.148-8.192,11.307-13.38,7.258c-5.18-2.069-6.211,3.013-9.227,5.083c5.086,6.227-4.145,9.338,0,15.461
		c-11.416,19.601-42.221,15.453-37.133,43.253c17.523-4.148,47.398-1.035,59.742-19.607c6.124-3.008,13.385-4.047,19.509,0
		l-0.936-9.23c4.037,3.113,8.193,0,13.377,0c5.092-4.149-4.148-6.225-2.068-10.274l11.506,4.74c0.293-0.354,0.576-0.713,0.856-1.076
		C576.558,370.825,580.735,355.354,566.855,347.367z M304.421,356.639h-4.116c-3.09-5.151,5.145-9.264,10.287-6.177
		C308.538,353.549,307.502,356.639,304.421,356.639z M304.419,343.257c1.031-2.061,4.119-8.234,8.226-6.175
		c2.067,3.089,3.097,6.177,6.187,9.27C314.711,349.433,308.538,346.352,304.419,343.257z"/>
	<path fill="#FFFFFF" d="M504.116,355.61c-9.268,2.056,2.047,11.321-5.157,15.449c-7.204,18.519-36.014-3.092-30.872,22.643
		c-8.241-8.239,0-16.479-2.061-25.734C479.422,366.931,491.755,352.526,504.116,355.61"/>
	<polyline fill="#FFFFFF" points="386.77,433.844 384.707,426.634 386.77,428.694 386.77,433.844 	"/>
</g>
<g>
	<path fill="#F7D119" d="M329.117,198.092c0,0,0.024,0.01,0.057,0.023C329.152,198.106,329.142,198.102,329.117,198.092z"/>
	<path fill="#F7D119" d="M437.305,68.847L67.929,438.229l369.375,369.374l369.376-369.374L437.305,68.847z M313.36,608.387
		c-3.214,0-14.473,0.968-26.376-0.967c0,0-34.744-32.172-45.678-43.751c-10.941-11.569-20.911-19.617-23.484-23.164
		c-6.04-8.295-4.503-3.537-5.47-8.677c-1.071-5.707,2.578-4.187,15.442-4.187c9.713,0,21.492,1.009,21.875,1.294
		c4.501,3.219,26.588,30.117,26.271,31.089l-16.301,0.109c-5.471-4.827-11.742-12.66-14.152-14.8
		c-2.898-2.58-4.503,0.324-4.503,1.61c0,3.468,43.427,45.526,46.641,45.687c6.751,0.313-1.61-5.797-4.822-9.657
		c0,0,6.72,0.324,13.183,0.324C295.987,583.298,317.678,608.387,313.36,608.387z M348.1,608.386c-4.503,0-23.14,0-26.05,0
		l-63.694-80.746h16.078c3.54,1.935,42.787,59.732,44.076,61.668c1.283,1.913,2.055,1.843,2.573,2.881
		c0.64,1.285,6.975,2.497,5.469-1.284c-0.647-1.597-39.887-63.265-39.887-63.265h18.761
		C305.425,527.64,349.429,608.386,348.1,608.386z M379.624,608.383c-2.629-0.392-3.266,0-4.29,0c-4.283,0-20.156,0.327-20.156,0.327
		c-2.462-2.365-43.105-81.07-43.105-81.07c1.104,0.054,34.103-1.284,39.888,1.935c4.181,2.321,16.105,34.702,14.48,37.952
		c-1.286,2.58-2.577,3.546-2.577,3.546s3.86-0.755,6.113,1.921C373.13,576.747,384.666,609.136,379.624,608.383z M375.275,451.195
		c-2.7-1.662-5.294-3.318-8.092-2.914v-7.248c-1.867,0.518-3.736-0.113-5.706-0.73c-2.385-0.621-4.873-1.352-7.676-0.302
		c1.033-2.085,3.112-3.019,2.075-5.091c-2.075-5.187-6.122-1.041-8.195,0l-2.075,1.038c-5.189-2.079,1.035-5.19-1.035-9.338
		c-3.838,0.934-7.057-1.658-10.271-4.253c-4.565-3.731-9.027-7.569-14.417-0.827c0-2.078,1.035-5.189-1.044-6.225h-2.071
		c6.224-9.232-7.158-8.197-10.27-13.384h-7.259c1.034-4.148-3.013-6.118-1.035-10.264c-6.124,0-9.236-9.234-12.351-16.494
		c-6.115-4.148,2.079-14.422-8.194-16.494c-2.074-16.391,14.419-22.613,10.273-40.145c16.565-0.976,7.391-13.909,15.871-22.242
		c1.268-3.09,3.147-5.813,5.477-7.974c1.835-8.476,4.309-14.816,11.641-21.23c-3.112-19.502-9.337-44.296,0-62.759
		c2.92-5.68,8.197-6.229,8.197-6.229c14.735-2.071,26.449,7.16,37.76,16.496c8.919,7.357,17.598,14.702,27.396,16.413h8.446
		c4.66-0.822,9.611-3.047,14.977-7.187c5.084,2.079,9.236-1.035,13.384,6.225c14.415-8.294,29.771-1.035,43.15,0
		c23.76-5.181,45.33-29.869,73.126-31.946l-0.45,0.31c1.919-0.034,3.676,0.416,5.095,1.598c3.438,2.865,2.117,17.729,2.516,13.55
		c3.107,16.488-9.226,32.986-3.016,44.29v18.463c-0.816,0.417-1.756,0.417-2.688,0.311c-1.45,0-2.902-0.102-3.522,1.768
		c4.14,4.146,6.21,8.292,13.372,12.341c-5.176,9.335,16.496,9.335,9.24,20.642c7.256,8.193,5.188,16.494,12.345,26.765l-6.12,9.231
		c19.494-1.036-2.072,19.605,14.414,23.652c-8.294,1.035,1.036,11.408-9.237,10.371c-7.249,7.154-2.069,26.761-20.642,21.578
		c-1.039,2.072-2.074,3.111-1.039,6.221c-3.621-3.008-6.211-1.453-9.021,0.207c-1.859,1.142-3.94,2.178-6.418,1.767
		c1.036,4.148,3.105,8.295,3.105,12.441c-4.156-3.103-12.352-5.182-12.352,0.935c-11.307,9.336-30.914,7.264-30.914,21.678
		c-2.076-5.178-8.195-4.143-11.305-3.107c-15.45,11.301-10.26,37.031-28.831,43.256c-5.503,10.997-15.664,10.58-27.077,10.274
		c-3.63-0.11-7.36-0.213-10.993,0c-7.224-2.651-13.745-6.59-19.31-11.488c-2.926-1.797-5.407-4.357-7.224-7.437
		c-0.3-0.332-0.59-0.682-0.873-1.041c-4.344-3.488-7.39-8.806-8.196-14.921c-1.03-2.714-1.861-5.513-2.467-8.38
		C381.702,455.137,378.382,453.166,375.275,451.195z M448.786,547.91c-3.561,5.752-1.608,34.732-1.927,37.311
		c-0.335,2.58,0.809,7.41,3.531,7.41c4.188,0,2.467-7.41,3.428-7.41c0.97,0,9.98,0,11.592,0c1.605,0-2.614,23.165-5.58,23.165
		h-22.301c-1.792-0.328-2.043-6-2.043-7.608s-3.316-69.911-2.995-71.203c0.321-1.296,2.144-1.935,3.747-1.935
		c4.181,0,18.448,0,34.1,0c2.766,0,4.173,1.608,3.86,4.515c-0.314,2.895-4.491,24.224-6.553,24.446
		c-2.883,0.312-7.517,0.362-10.626-0.261c-1.608-0.324-0.191-9.083-0.191-10.039C456.828,543.407,452.971,541.157,448.786,547.91z
		 M423.37,527.64c0.968,0,1.935,10.614,1.935,16.412c0,1.606-15.536-0.687-20.912,0.968c-4.181,1.283,1.14,13.832,4.183,13.832
		c2.579,0,14.879-0.675,16.411,1.599c1.924,2.9,4.711,43.762,4.062,45.041c-0.636,1.284-1.93,3.245-4.062,3.535
		c-2.363,0.328-19.303,0-21.554,0s-4.181-15.758-4.181-15.758c1.604-0.324,8.592,1.062,11.58,0
		c4.502-1.605,3.862-11.907,2.895-13.83c-1.611-3.219-10.525-3.567-13.193-2.895c-2.57,0.644-3.861,0-5.471-3.217
		c-1.607-3.223-10.936-45.049-10.936-45.049C388.311,526.996,416.087,527.64,423.37,527.64z M481.583,701.937
		c-2.163,2.282-5.452,5.954-9.399,8.094c0,0-2.241-12.561-8.273-12.561c0,0-12.106-0.588-12.118,19.166c0,0,3.267,0.439,3.237,1.983
		c-0.024,1.543-0.229,2.396-3.212,2.665c0,0-0.723,2.479,2.534,3.695c3.268,1.216,7.748-1.801,8.747-3.334
		c0,0,5.924,6.844,1.735,11.617c-4.333,4.94-6.071,3.399-7.592,3.399c-4.632,0-6.31-3.828-8.547-7.719
		c0,0-3.332,16.237-10.396,19.796c0.064,0.032,0.127,0.071,0.191,0.102h-0.382c0.064-0.03,0.127-0.069,0.19-0.102
		c-7.067-3.559-10.397-19.796-10.397-19.796c-2.243,3.894-3.915,7.719-8.546,7.719c-1.514,0-3.26,1.541-7.591-3.399
		c-4.176-4.773,1.739-11.617,1.739-11.617c0.995,1.533,5.481,4.549,8.738,3.334c3.266-1.216,2.541-3.695,2.541-3.695
		c-2.988-0.269-3.184-1.122-3.215-2.665c-0.028-1.544,3.238-1.983,3.238-1.983c-0.019-19.754-12.117-19.166-12.117-19.166
		c-6.045,0-8.276,12.561-8.276,12.561c-3.944-2.14-7.225-5.812-9.39-8.094c-2.96-4.918-3.618-8.521-3.636-10.977
		c-0.004-2.358,2.154-6.797,2.154-6.797c14.646-15.454,29.16,0.261,29.16,0.261c-2.675-9.219,7.775-29.859,7.775-29.859
		c4.248-6.305,7.815-13.058,7.815-13.058s3.572,6.753,7.83,13.058c0,0,10.456,20.641,7.777,29.859c0,0,14.509-15.715,29.158-0.261
		c0,0,2.157,4.438,2.146,6.797C485.202,693.415,484.527,697.019,481.583,701.937z M489.438,608.387c-1.935,0-15.353,0.327-17.601,0
		c-2.251-0.328-3.106,0-4.389-1.283c-1.388-1.383,13.506-74.633,14.787-74.633c1.295-0.002,2.163-5.022,6.323-4.831
		c2.255,0.113,26.613-0.957,29.176,0c2.567,0.968,5.041,3.861,3.76,7.078c-1.296,3.22-23.488,66.588-25.102,69.164
		C494.787,606.464,491.356,608.387,489.438,608.387z M527.593,604.84c-1.598,0.969-0.967,4.187-4.174,4.187
		c-3.221,0-17.698-0.312-18.989,0c-1.283,0.328-3.646-1.825-2.025-3.107c1.597-1.281,31.312-75.049,31.312-75.049l0.955-3.23H551.4
		c0,0-26.879,54.754-30.121,58.551c5.144-6-5.9,7.259,0.318,8.151c6.044,0.864,38.816-66.702,40.412-66.702
		c1.645,0,14.162,0,15.444,0C579.073,527.64,529.216,603.881,527.593,604.84z M551.082,608.387c-1.294-0.328-11.267,0-11.267,0
		l41.183-64.335h-6.766l9.974-16.412c2.903,0,36.352,0,37.324,0l-13.506,16.412h-9.977
		C598.048,544.052,552.364,608.714,551.082,608.387z M618.312,563.351h19.301c5.8,1.603-42.467,44.069-44.402,45.036
		c-0.104,0.053-0.187,0.097-0.262,0.139c0.242,0.211-0.969,0.533,0,0c-0.089-0.077-0.368-0.139-1.019-0.139
		c-2.565,0-27.98,0-28.948,0c-0.967,0,12.549-14.045,15.117-16.084c1.271-0.99,5.792,0,12.229,0.64
		c3.201,0.324,16.231-12.548,17.698-14.146c3.221-3.546,0.317-3.872-2.904-4.187c-3.218-0.316-9.837-0.297-9.977-1.612
		c-0.64-6.109,29.604-39.246,32.169-41.496c1.373-1.192,1.613-4.174,7.724-3.861c2.272,0.125,38.604,0,38.604,0l-15.758,16.412
		c-15.128,0-15.769,0-25.414,0.32C632.47,544.372,616.373,561.416,618.312,563.351z"/>
	<path fill="#F7D119" d="M329.476,198.236c-0.041-0.016-0.101-0.041-0.175-0.07C329.361,198.19,329.423,198.215,329.476,198.236z"/>
	<path fill="#F7D119" d="M390.358,446.972c-0.256,0.844-0.488,1.691-0.655,2.548c0.329-0.829,0.712-1.625,1.127-2.398
		C390.672,447.071,390.514,447.025,390.358,446.972z"/>
	<path fill="#F7D119" d="M456.404,483.227c-0.036,0.057-0.074,0.112-0.11,0.169c0.864,0.079,1.718,0.175,2.553,0.3L456.404,483.227z
		"/>
	<path fill="#F7D119" d="M396.913,477.06c-0.022-0.017-0.044-0.035-0.066-0.052c0.041,0.052,0.079,0.104,0.12,0.156
		C396.948,477.13,396.932,477.094,396.913,477.06z"/>
	<path fill="#F7D119" d="M354.548,582.486c2.073,4.761,3.524,7.562,5.135,10.145c1.073,1.722,4.192,0.188,4.135-1.421
		c-0.043-1.607-1.698-5.593-3.141-8.27c-1.368-2.537-1.317-2.546-4.917-3.063C352.945,579.45,354.548,582.486,354.548,582.486"/>
	<path fill="#F7D119" d="M337.058,547.799c2.075,4.774,6.246,13.034,8.256,15.552c1.266,1.59,5.686,0.533,5.686-0.752
		c0-1.607-5.45-13.27-7.188-15.756c-2.252-3.219-2.252-2.262-5.791-2.262C334.16,544.579,337.058,547.799,337.058,547.799"/>
	<path fill="#F7D119" d="M492.974,545.018c8.236-5.14,7.109,8.159,7.607,3.861c-0.972,8.363-12.55,45.463-15.443,45.463
		c-5.468,0-3.53-1.073-3.005-9.121c0.394-5.955,8.681-35.486,8.681-35.486L492.974,545.018"/>
</g>
</svg>
